# xmcd
#
# Track frame offsets: 
#        150
#        13015
#        18882
#        26238
#        55443
#        69351
#        96002
#        109320
#        130162
#        166336
#        191869
#        215857
#
# Disc length: 3087 seconds
#
# Revision: 0
# Processed by: cddbd v1.5.2PL0 Copyright (c) Steve Scherf et al.
# Submitted via: ExactAudioCopy v0.99pb4
#
DISCID=ac0c0d0c
DTITLE=Alabama - Southern Stars - Live In Concert
DYEAR=1998
DGENRE=Country
TTITLE0=Roll On
TTITLE1=I'm In A Hurry
TTITLE2=She Ain't Your Ordinary Girl
TTITLE3=Dixieland Delight
TTITLE4=She's Got That Look In Her Eyes
TTITLE5=If You're Gonna Play In Texas (You Gotta Have A Fiddle In The 
TTITLE5=Band)
TTITLE6=Cold Budweiser 'N A Sweet Tater
TTITLE7=Take Me Down
TTITLE8=Song Of The South
TTITLE9=Forty Hour Week (For A Livin')
TTITLE10=Dancin', Shaggin' On The Boulevard
TTITLE11=Knock On Wood
EXTD=
EXTT0=
EXTT1=
EXTT2=
EXTT3=
EXTT4=
EXTT5=
EXTT6=
EXTT7=
EXTT8=
EXTT9=
EXTT10=
EXTT11=
PLAYORDER=
